<?xml version="1.0" standalone="no"?>
<!DOCTYPE svg PUBLIC "-//W3C//DTD SVG 20010904//EN"
 "http://www.w3.org/TR/2001/REC-SVG-20010904/DTD/svg10.dtd">
<svg version="1.0" xmlns="http://www.w3.org/2000/svg"
 width="5000.000000pt" height="3535.000000pt" viewBox="0 0 5000.000000 3535.000000"
 preserveAspectRatio="xMidYMid meet">

<g transform="translate(0.000000,3535.000000) scale(0.100000,-0.100000)"
fill="#000000" stroke="none">
<path d="M0 17675 l0 -17675 25000 0 25000 0 0 17675 0 17675 -25000 0 -25000
0 0 -17675z m22935 17145 c577 -122 1038 -528 1220 -1072 63 -189 78 -290 79
-503 0 -158 -3 -209 -22 -302 -130 -650 -619 -1142 -1276 -1285 -87 -19 -131
-22 -321 -22 -190 0 -234 3 -321 22 -664 144 -1154 643 -1280 1302 -28 144
-25 438 5 580 107 509 417 913 876 1143 152 76 339 133 515 157 113 15 412 4
525 -20z m13060 -451 c812 -69 1514 -621 1765 -1387 283 -864 -43 -1796 -807
-2309 -125 -83 -346 -191 -488 -238 -590 -193 -1234 -110 -1749 225 -505 329
-825 828 -912 1420 -25 174 -15 500 21 670 82 392 269 742 544 1018 431 434
1023 653 1626 601z m-19985 -83 c194 -42 374 -124 532 -243 248 -187 415 -455
484 -773 25 -115 25 -360 1 -483 -33 -166 -103 -331 -200 -477 -64 -96 -251
-283 -344 -344 -397 -260 -884 -294 -1295 -91 -130 64 -222 129 -329 232 -200
194 -333 438 -380 703 -17 96 -17 333 0 430 45 251 173 500 351 680 107 109
197 175 330 244 143 74 269 113 445 140 64 9 332 -2 405 -18z m-5215 -120
c219 -40 380 -92 570 -185 557 -273 960 -786 1090 -1386 66 -304 59 -627 -20
-937 -203 -794 -899 -1394 -1735 -1498 -122 -15 -371 -12 -502 5 -691 91
-1281 521 -1578 1150 -135 285 -190 533 -190 856 0 409 106 763 327 1099 329
498 842 820 1438 905 133 19 475 14 600 -9z m37058 -311 c111 -17 273 -68 369
-116 536 -270 817 -846 694 -1424 -91 -423 -415 -788 -834 -939 -252 -90 -566
-94 -827 -9 -400 129 -720 451 -839 843 -45 150 -59 259 -53 420 8 212 40 338
132 525 161 325 468 577 816 670 53 14 123 29 155 34 95 14 282 12 387 -4z
m-44398 -96 c593 -86 1112 -518 1300 -1082 63 -189 78 -289 79 -507 1 -169 -2
-211 -23 -310 -69 -332 -227 -619 -473 -856 -370 -356 -890 -515 -1397 -428
-802 137 -1386 855 -1347 1656 11 235 63 432 167 643 311 628 995 985 1694
884z m25015 -244 c141 -20 364 -73 502 -121 57 -19 171 -68 253 -108 790 -381
1317 -1108 1430 -1971 18 -141 21 -444 5 -590 -62 -564 -318 -1094 -730 -1506
-416 -416 -935 -666 -1527 -735 -168 -20 -503 -14 -663 11 -547 85 -1042 336
-1430 725 -379 379 -616 836 -711 1365 -27 154 -38 521 -19 688 95 860 620
1609 1401 1996 298 148 617 237 954 265 100 8 423 -3 535 -19z m14333 -1760
c352 -56 679 -174 967 -349 312 -191 603 -472 806 -781 211 -322 330 -639 396
-1060 16 -107 17 -514 0 -630 -59 -415 -185 -751 -407 -1085 -359 -541 -922
-930 -1552 -1074 -215 -49 -322 -60 -578 -60 -276 0 -389 13 -631 74 -191 49
-311 93 -499 185 -459 224 -831 573 -1094 1025 -153 265 -256 565 -308 900
-25 163 -24 529 1 695 59 383 192 731 399 1042 205 308 488 580 797 768 302
184 680 317 1010 354 52 6 109 13 125 15 68 10 475 -4 568 -19z m-23358 -624
c478 -73 922 -244 1315 -506 757 -505 1256 -1292 1390 -2190 27 -181 37 -528
21 -714 -28 -316 -93 -594 -208 -886 -411 -1047 -1357 -1806 -2468 -1984
-1336 -212 -2636 413 -3310 1592 -200 349 -335 766 -387 1192 -19 162 -16 587
6 744 67 482 211 884 457 1279 427 688 1131 1203 1914 1402 315 80 489 100
855 95 218 -2 304 -7 415 -24z m28262 -2016 c256 -52 464 -161 653 -341 261
-251 392 -556 394 -914 0 -167 -13 -253 -60 -399 -179 -547 -703 -911 -1279
-888 -205 9 -361 49 -540 140 -353 180 -597 502 -682 897 -25 117 -24 371 1
490 106 493 466 872 946 996 52 13 129 28 170 34 99 12 299 4 397 -15z
m-10857 -370 c495 -67 914 -417 1063 -891 82 -259 74 -561 -22 -822 -151 -413
-515 -722 -963 -818 -101 -22 -369 -25 -470 -6 -449 85 -823 388 -983 797
-191 487 -71 1028 309 1393 284 273 675 400 1066 347z m-30125 -269 c310 -46
611 -146 870 -289 729 -402 1213 -1113 1311 -1927 18 -156 18 -449 -2 -602
-71 -565 -322 -1076 -724 -1478 -249 -249 -549 -445 -879 -575 -162 -64 -388
-124 -566 -151 -169 -26 -561 -26 -730 0 -554 84 -1047 330 -1436 716 -69 69
-160 168 -201 220 -804 1010 -724 2444 187 3356 395 396 915 656 1455 728 63
9 133 17 155 20 81 8 463 -4 560 -18z m26845 -2437 c1317 -115 2521 -907 3158
-2076 694 -1274 630 -2834 -165 -4046 -604 -920 -1555 -1553 -2633 -1751 -482
-89 -1020 -87 -1490 5 -777 152 -1479 518 -2039 1064 -348 339 -599 684 -808
1111 -254 518 -382 1039 -400 1624 -24 819 204 1610 662 2295 341 510 750 900
1276 1218 730 440 1572 632 2439 556z m-7770 -353 c199 -27 350 -75 530 -167
440 -227 746 -627 852 -1113 19 -87 22 -131 22 -316 0 -185 -3 -229 -22 -317
-67 -306 -202 -566 -410 -785 -236 -247 -521 -407 -856 -480 -87 -19 -132 -22
-326 -22 -196 -1 -238 2 -325 21 -557 123 -997 495 -1196 1012 -121 315 -137
684 -42 1011 169 586 670 1036 1273 1144 158 28 342 33 500 12z m-12536 -975
c365 -74 715 -285 945 -571 252 -314 375 -682 358 -1075 -17 -411 -176 -773
-467 -1065 -261 -262 -591 -425 -953 -470 -137 -18 -403 -8 -529 19 -340 73
-675 268 -893 519 -635 732 -503 1821 288 2379 202 143 472 248 722 282 120
16 405 7 529 -18z m33296 -97 c658 -96 1231 -512 1525 -1108 88 -179 137 -316
170 -480 50 -247 56 -482 20 -717 -136 -873 -831 -1562 -1709 -1695 -626 -94
-1257 106 -1718 544 -173 165 -315 361 -423 584 -180 371 -240 767 -179 1173
104 688 568 1283 1217 1559 342 146 723 194 1097 140z m-44285 -844 c409 -39
767 -259 983 -604 309 -492 242 -1133 -162 -1554 -240 -250 -533 -383 -876
-399 -377 -16 -715 114 -979 379 -187 188 -312 428 -356 682 -19 114 -19 326
0 439 54 305 227 593 470 782 233 181 456 261 785 283 14 1 75 -3 135 -8z
m17616 -1460 c434 -89 796 -399 952 -815 50 -132 68 -231 74 -391 6 -174 -10
-300 -57 -445 -116 -352 -393 -650 -740 -792 -86 -35 -226 -75 -233 -67 -2 3
-7 22 -10 43 -5 29 -3 37 10 37 34 0 232 74 314 116 332 176 564 499 625 874
22 134 14 331 -20 466 -54 219 -156 396 -320 560 -237 238 -518 354 -856 354
-253 0 -472 -65 -680 -202 -88 -57 -245 -211 -311 -304 -52 -73 -55 -75 -88
-70 -18 3 -36 7 -38 10 -8 8 43 89 105 168 210 262 523 436 862 478 106 13
294 4 411 -20z m-71 -226 c33 -10 67 -29 87 -49 22 -22 45 -34 74 -38 65 -9
119 -52 158 -129 54 -107 54 -237 -1 -307 -13 -17 -15 -27 -7 -32 7 -4 8 -12
4 -20 -5 -7 -7 -38 -6 -69 3 -69 -18 -126 -53 -141 -19 -9 -30 -28 -45 -79
-23 -76 -87 -177 -134 -214 -29 -23 -30 -25 -12 -32 299 -107 492 -352 512
-648 l6 -96 -751 0 -752 0 0 73 c0 190 110 415 259 534 58 45 221 133 249 133
9 0 -7 23 -42 59 -56 60 -110 156 -122 219 -4 20 -17 40 -32 50 -34 22 -52 70
-52 139 0 39 -8 78 -25 118 -28 68 -31 115 -11 196 33 144 133 236 316 294
169 54 289 66 380 39z m20495 -194 c261 -30 493 -114 715 -257 377 -244 635
-639 711 -1086 30 -176 24 -431 -15 -602 -74 -320 -206 -557 -440 -790 -236
-235 -490 -373 -818 -447 -91 -20 -129 -23 -328 -23 -247 0 -330 12 -525 77
-536 178 -956 654 -1070 1212 -53 263 -31 584 57 835 249 712 969 1166 1713
1081z m-31754 -56 c321 -54 616 -233 812 -492 79 -105 150 -235 191 -349 113
-319 91 -682 -61 -988 -155 -312 -439 -554 -773 -659 -145 -46 -247 -59 -430
-53 -141 4 -182 9 -282 35 -134 35 -275 98 -393 177 -108 72 -112 76 -82 110
l23 28 83 -57 c151 -103 323 -171 509 -202 122 -20 329 -13 452 15 362 82 675
333 830 663 85 182 115 336 107 558 -6 162 -20 239 -70 370 -137 363 -451 642
-832 740 -652 168 -1318 -227 -1479 -875 -96 -388 12 -800 290 -1103 l67 -74
-27 -26 -27 -27 -73 76 c-218 226 -346 546 -346 864 0 521 312 985 799 1190
73 31 246 79 316 88 83 11 309 6 396 -9z m9981 -223 c4 -4 -8 -43 -28 -88 -59
-138 -85 -258 -91 -423 -6 -162 8 -268 53 -411 131 -415 495 -733 932 -815 87
-16 250 -23 352 -14 l55 4 6 -38 c5 -29 3 -39 -10 -44 -9 -4 -90 -7 -181 -7
-122 0 -187 5 -250 18 -269 58 -473 169 -666 361 -253 254 -374 545 -374 901
0 194 31 348 103 508 29 66 31 68 61 61 17 -3 34 -9 38 -13z m-9977 -20 c22
-10 51 -30 64 -45 14 -14 34 -26 45 -26 43 0 124 -48 156 -91 72 -101 83 -287
19 -355 -20 -21 -20 -24 -5 -30 13 -5 14 -9 5 -20 -7 -8 -9 -28 -5 -48 10 -54
-12 -122 -49 -154 -23 -19 -39 -47 -54 -93 -26 -79 -64 -140 -119 -193 l-41
-39 71 -29 c267 -107 458 -376 458 -644 l0 -73 -407 -3 c-225 -2 -562 -2 -750
0 l-343 3 0 55 c0 143 72 335 169 452 67 80 152 144 264 196 l87 42 -51 49
c-50 50 -110 157 -124 222 -3 18 -17 39 -31 48 -35 23 -54 73 -54 143 0 40 -9
83 -26 127 -23 64 -24 73 -14 139 14 90 38 143 90 200 75 81 180 132 355 171
93 20 241 19 290 -4z m16855 -2101 c572 -74 1087 -327 1494 -734 762 -761 959
-1907 492 -2871 -122 -253 -261 -454 -448 -651 -420 -439 -964 -709 -1578
-781 -165 -19 -500 -13 -660 12 -140 22 -383 85 -506 130 -150 57 -336 148
-372 183 -18 18 -42 32 -53 32 -11 0 -62 28 -112 61 -590 395 -989 1019 -1102
1725 -22 137 -31 471 -16 620 79 771 488 1442 1146 1877 134 89 368 207 520
263 191 70 461 127 695 148 78 7 411 -2 500 -14z m-9640 -245 c551 -61 1083
-231 1553 -496 146 -83 390 -249 537 -365 170 -136 487 -451 616 -614 437
-551 713 -1164 823 -1825 41 -245 46 -323 46 -670 -1 -374 -13 -505 -76 -799
-341 -1612 -1656 -2857 -3289 -3115 -241 -39 -341 -46 -640 -45 -316 0 -456
12 -720 60 -1191 218 -2224 965 -2803 2028 -221 405 -368 842 -436 1296 -65
438 -52 955 34 1374 226 1093 891 2031 1857 2617 269 164 625 321 923 409 317
93 587 139 965 164 106 7 477 -5 610 -19z m-10775 -330 c416 -63 812 -258
1113 -549 137 -132 178 -184 165 -205 -9 -14 -7 -20 11 -31 11 -8 27 -14 35
-15 23 0 127 -161 201 -310 390 -789 228 -1723 -406 -2335 -204 -197 -458
-359 -707 -449 l-58 -21 -19 46 c-11 25 -20 50 -20 56 0 10 -39 2 -53 -11 -4
-4 2 -29 13 -56 25 -58 27 -57 -95 -85 -181 -42 -283 -53 -485 -53 -222 0
-368 20 -570 78 -765 221 -1328 868 -1445 1660 -34 228 -18 534 40 765 170
679 693 1232 1363 1444 108 34 309 74 426 86 118 11 364 4 491 -15z m43215
-410 c519 -104 935 -525 1025 -1039 19 -114 19 -328 0 -442 -45 -256 -168
-489 -359 -679 -157 -156 -325 -259 -526 -323 -139 -44 -227 -57 -390 -57
-163 0 -251 13 -390 57 -391 124 -708 435 -838 823 -90 268 -81 603 22 863
114 288 335 531 608 673 115 59 273 112 378 128 41 6 86 13 100 15 48 9 296
-4 370 -19z m-11171 -900 c488 -127 849 -501 956 -990 24 -110 30 -322 12
-441 -43 -279 -175 -533 -381 -732 -190 -183 -423 -303 -680 -347 -113 -19
-314 -19 -433 0 -463 75 -853 405 -1011 855 -107 305 -83 677 60 965 161 323
443 565 780 670 147 46 218 54 413 51 157 -3 193 -7 284 -31z m6486 -903 c512
-80 903 -230 1325 -508 179 -118 324 -237 490 -404 538 -537 851 -1206 921
-1963 17 -186 7 -534 -21 -722 -27 -184 -93 -447 -154 -620 -99 -275 -295
-629 -483 -870 -432 -555 -1061 -967 -1733 -1135 -259 -64 -435 -89 -706 -97
-685 -21 -1316 162 -1889 548 -1134 764 -1654 2160 -1290 3465 151 538 424
1005 825 1404 513 512 1179 829 1920 916 174 20 626 12 795 -14z m-13033 -891
c491 -106 898 -415 1122 -850 71 -140 114 -260 148 -414 20 -88 23 -131 22
-317 0 -184 -3 -230 -22 -316 -32 -147 -65 -243 -137 -389 -83 -171 -165 -285
-305 -425 -165 -165 -332 -278 -535 -361 -352 -144 -762 -158 -1127 -38 -393
128 -758 442 -942 808 -127 252 -187 558 -166 841 29 373 183 716 444 987 257
267 564 428 935 488 128 21 436 13 563 -14z m5438 -2307 c578 -83 1101 -418
1423 -914 128 -198 230 -449 282 -701 32 -153 45 -446 26 -604 -34 -292 -126
-565 -271 -805 -313 -520 -819 -867 -1416 -971 -156 -27 -460 -32 -614 -10
-627 89 -1163 447 -1487 993 -141 236 -230 505 -264 793 -18 154 -6 451 24
600 66 323 205 621 407 875 84 105 259 276 362 353 444 331 982 469 1528 391z
m-26614 -1149 c183 -32 353 -100 511 -206 99 -66 284 -252 348 -349 75 -116
143 -267 177 -397 29 -110 31 -130 32 -298 1 -139 -3 -199 -17 -265 -22 -102
-60 -216 -96 -287 l-26 -52 -33 21 c-18 11 -31 26 -28 32 43 96 72 180 94 266
22 90 26 127 26 260 1 94 -4 183 -13 225 -88 443 -401 795 -829 929 -248 78
-549 71 -782 -17 -346 -130 -617 -406 -729 -742 -51 -153 -64 -249 -58 -425 3
-124 10 -175 30 -253 118 -448 476 -787 932 -882 477 -99 977 105 1255 514
l41 62 30 -22 c18 -12 28 -27 25 -35 -15 -39 -99 -149 -175 -227 -177 -184
-389 -305 -641 -368 -124 -30 -363 -37 -501 -14 -469 78 -853 398 -1013 843
-93 259 -93 583 0 844 135 378 449 681 834 803 46 14 118 32 159 39 105 19
338 20 447 1z m12264 -185 c212 -22 370 -68 565 -165 72 -35 173 -95 225 -132
122 -87 289 -253 370 -368 149 -209 257 -475 288 -702 l9 -63 -34 0 c-22 0
-33 -5 -33 -14 0 -31 13 -46 40 -46 26 0 28 -3 34 -54 6 -58 -7 -257 -24 -346
-86 -456 -360 -849 -760 -1093 -61 -37 -76 -43 -85 -31 -16 22 -55 6 -55 -23
0 -27 -32 -43 -183 -95 -475 -159 -1003 -88 -1419 191 -358 241 -595 591 -690
1018 -30 135 -33 480 -5 618 112 552 503 1014 1022 1208 97 37 255 77 255 66
0 -5 14 -9 30 -9 19 0 30 5 30 14 0 10 16 16 53 20 28 3 66 8 82 9 63 8 194 6
285 -3z m-12281 -52 c25 -7 58 -25 77 -45 18 -18 39 -33 46 -33 62 0 153 -61
185 -124 54 -104 55 -243 2 -317 -13 -18 -15 -29 -7 -37 5 -5 7 -15 3 -21 -3
-7 -7 -42 -8 -79 -2 -73 -23 -120 -57 -129 -13 -3 -25 -26 -39 -72 -22 -72
-80 -169 -129 -215 l-31 -29 76 -33 c236 -103 392 -295 439 -540 8 -42 14 -98
14 -125 l0 -48 -407 -3 c-225 -2 -562 -2 -750 0 l-343 3 0 73 c0 187 103 399
255 526 57 47 148 99 217 125 l46 17 -36 32 c-50 44 -109 138 -132 213 -13 43
-29 72 -49 89 -32 26 -54 98 -44 144 2 15 -7 55 -21 94 -29 75 -32 118 -15
198 33 157 140 249 364 313 152 44 241 50 344 23z m-4906 -997 c504 -101 933
-433 1152 -894 62 -131 95 -226 127 -369 20 -90 23 -130 23 -318 0 -169 -4
-233 -18 -300 -39 -185 -98 -343 -184 -492 -25 -43 -47 -78 -50 -78 -2 0 -24
14 -48 30 l-44 30 64 123 c135 261 191 532 166 800 -21 225 -57 351 -157 552
-79 161 -162 272 -302 406 -209 201 -446 326 -740 392 -82 18 -128 21 -302 21
-174 0 -220 -3 -303 -22 -617 -138 -1066 -594 -1183 -1202 -24 -129 -25 -388
0 -520 115 -623 604 -1104 1231 -1212 159 -27 442 -22 575 11 206 52 368 120
517 220 147 99 248 194 380 358 l18 23 47 -31 48 -31 -33 -47 c-48 -70 -242
-261 -327 -323 -217 -158 -441 -253 -715 -300 -156 -27 -436 -21 -583 11 -344
76 -614 229 -859 484 -553 579 -584 1491 -72 2112 257 312 616 516 1019 579
137 22 410 15 553 -13z m-68 -303 c22 -7 60 -32 84 -55 28 -27 54 -43 69 -43
146 0 272 -172 272 -370 0 -79 -12 -126 -46 -175 -20 -30 -23 -40 -12 -46 9
-5 13 -32 13 -96 0 -102 -20 -156 -72 -188 -19 -13 -33 -31 -37 -50 -19 -94
-90 -221 -168 -301 l-49 -51 74 -27 c215 -78 418 -270 512 -482 44 -99 66
-193 72 -311 l6 -113 -935 0 -936 0 -5 33 c-3 17 -1 73 4 122 33 332 249 616
569 746 l75 31 -60 61 c-74 75 -122 158 -151 255 -17 60 -26 77 -51 92 -47 28
-67 92 -60 188 5 64 3 85 -14 122 -35 79 -40 121 -24 213 20 113 42 161 106
231 83 91 162 135 336 186 163 49 332 60 428 28z m24385 -702 c732 -100 1381
-427 1891 -953 434 -448 734 -1024 843 -1623 55 -304 66 -682 27 -975 -47
-351 -136 -650 -285 -960 -234 -485 -583 -901 -1021 -1217 -1088 -783 -2573
-800 -3680 -40 -179 122 -291 216 -456 381 -209 210 -343 380 -491 624 -65
107 -192 363 -203 408 -6 25 -4 27 35 34 37 6 41 9 38 33 -3 29 -15 32 -74 18
-30 -7 -32 -5 -47 33 -68 170 -144 490 -173 731 -21 178 -22 529 0 706 60 505
229 969 501 1379 135 205 239 330 419 510 538 535 1203 847 1971 925 132 13
569 4 705 -14z m18209 -656 c248 -51 478 -176 659 -361 177 -181 292 -397 348
-654 25 -119 24 -369 -4 -495 -112 -514 -500 -896 -1022 -1007 -119 -25 -371
-24 -495 1 -519 107 -911 497 -1022 1016 -24 116 -25 371 0 487 38 181 127
382 229 518 146 195 367 360 596 444 219 81 476 99 711 51z m-12409 -760 c503
-102 896 -494 1007 -1002 25 -115 25 -390 1 -504 -85 -390 -328 -709 -678
-888 -496 -254 -1084 -169 -1484 214 -329 315 -466 754 -372 1195 113 527 566
936 1112 1005 102 13 300 3 414 -20z m-18652 -535 c462 -75 858 -403 1016
-843 71 -199 90 -464 47 -669 -119 -570 -581 -982 -1159 -1032 -641 -57 -1228
371 -1374 1001 -18 77 -22 125 -22 278 -1 172 1 193 28 295 32 125 85 253 144
353 62 102 65 106 88 94 48 -28 49 -25 -9 -121 -64 -105 -117 -236 -149 -366
-30 -121 -32 -368 -4 -495 153 -704 871 -1120 1558 -904 425 134 750 504 824
941 24 141 15 364 -19 496 -117 445 -462 773 -922 880 -122 28 -362 30 -485 4
-247 -53 -461 -168 -630 -338 l-79 -79 -30 18 c-17 9 -31 21 -31 26 0 4 33 42
73 83 197 204 465 341 742 382 97 14 293 12 393 -4z m-5 -237 c22 -7 55 -27
75 -45 19 -18 50 -35 71 -39 54 -10 84 -28 128 -78 49 -55 73 -127 73 -216 0
-75 -11 -114 -41 -146 -11 -12 -17 -24 -12 -27 14 -9 6 -150 -11 -190 -8 -21
-26 -42 -40 -48 -17 -8 -28 -25 -36 -58 -17 -69 -67 -155 -121 -210 l-48 -49
57 -21 c122 -44 248 -138 327 -243 91 -121 134 -235 142 -380 l6 -97 -399 -3
c-219 -2 -558 -2 -751 0 l-353 3 0 55 c0 195 114 428 268 549 49 39 179 110
234 128 14 5 9 15 -32 57 -50 52 -115 167 -126 225 -3 20 -16 41 -30 50 -36
23 -47 53 -54 140 -4 44 -17 107 -30 140 -20 55 -21 66 -11 130 32 199 165
307 452 370 81 17 209 19 262 3z m-4758 -652 c569 -85 1066 -334 1460 -730
583 -587 842 -1397 704 -2208 -135 -796 -658 -1490 -1394 -1848 -181 -88 -304
-134 -490 -180 -245 -62 -355 -75 -635 -75 -277 0 -390 13 -623 72 -853 213
-1548 862 -1811 1691 -132 419 -154 889 -60 1312 69 307 198 606 376 865 101
147 95 142 119 127 16 -10 23 -10 43 5 21 16 22 20 10 50 l-14 32 79 88 c187
207 458 411 731 550 268 136 594 231 905 262 124 13 479 5 600 -13z m29514
-591 c467 -68 865 -273 1193 -614 277 -288 461 -647 533 -1041 26 -142 32
-472 11 -623 -30 -213 -84 -390 -181 -592 -200 -417 -529 -746 -950 -951 -785
-381 -1728 -218 -2343 404 -311 316 -513 732 -568 1170 -118 954 464 1859
1392 2167 95 31 311 79 404 88 104 11 411 6 509 -8z m-20908 -696 c692 -70
1301 -489 1616 -1109 59 -117 60 -109 -24 -130 -43 -11 -53 -28 -35 -58 7 -10
18 -9 58 3 27 8 56 15 64 15 19 0 59 -111 95 -260 150 -623 -3 -1272 -417
-1765 -324 -387 -781 -640 -1279 -710 -132 -18 -412 -21 -539 -5 -430 55 -841
250 -1154 550 -342 327 -558 755 -616 1220 -25 203 -8 493 41 703 133 567 535
1073 1067 1341 184 93 439 172 627 195 50 6 101 13 115 15 57 8 285 5 381 -5z
m-16080 -924 c625 -109 1086 -685 1056 -1320 -9 -181 -58 -369 -137 -526 -47
-93 -149 -228 -240 -319 -343 -345 -852 -467 -1315 -315 -445 146 -769 507
-866 968 -31 144 -31 361 0 506 118 556 576 962 1156 1025 67 7 257 -3 346
-19z m43631 -284 c438 -95 814 -360 1055 -746 103 -163 189 -405 218 -614 23
-158 16 -387 -15 -536 -159 -757 -825 -1296 -1600 -1295 -439 1 -856 181
-1167 503 -374 389 -527 925 -412 1454 126 584 595 1067 1176 1214 171 43 220
48 443 44 161 -2 226 -8 302 -24z m-22649 -716 c265 -46 505 -171 698 -364
187 -188 315 -436 360 -700 20 -112 15 -331 -10 -448 -127 -607 -649 -1033
-1265 -1033 -347 0 -655 124 -902 362 -204 197 -338 454 -380 730 -19 122 -14
334 10 443 58 263 180 480 374 667 102 98 252 202 306 212 20 4 36 11 36 17 0
24 184 87 325 113 108 19 340 20 448 1z m9833 -320 c303 -53 580 -210 773
-441 131 -158 215 -320 268 -522 34 -130 43 -372 19 -508 -72 -414 -327 -756
-701 -942 -115 -57 -208 -88 -337 -113 -155 -30 -404 -23 -548 14 -234 60
-443 179 -610 347 -166 167 -271 354 -338 600 -23 87 -26 113 -26 295 -1 188
1 206 27 308 47 180 110 312 218 458 194 261 491 445 814 503 109 19 331 20
441 1z"/>
<path d="M22435 34724 c-89 -14 -201 -39 -284 -66 -516 -164 -900 -591 -1016
-1128 -22 -105 -31 -354 -16 -474 79 -625 545 -1131 1176 -1277 143 -33 413
-38 573 -10 559 95 1019 494 1186 1027 51 167 61 236 61 444 0 217 -11 288
-70 466 -168 505 -591 879 -1124 995 -72 16 -140 22 -276 24 -99 2 -193 1
-210 -1z m450 -219 c31 -15 65 -40 77 -56 17 -23 30 -29 59 -29 21 0 60 -12
90 -28 104 -54 172 -185 173 -332 1 -102 -9 -144 -46 -186 -27 -30 -29 -37
-17 -45 12 -6 16 -29 18 -96 1 -75 -2 -95 -21 -133 -13 -25 -35 -51 -49 -57
-21 -10 -32 -30 -54 -98 -33 -101 -81 -180 -154 -251 l-52 -51 43 -12 c124
-38 267 -131 379 -248 155 -162 237 -358 242 -573 l2 -95 -939 -3 -939 -2 6
102 c7 126 35 237 86 344 108 226 287 384 535 474 l29 11 -53 52 c-75 73 -124
153 -157 257 -15 50 -33 90 -40 90 -23 0 -62 61 -73 115 -8 39 -9 70 -2 102 9
41 7 55 -19 120 -33 83 -35 111 -15 216 19 99 54 165 124 235 71 71 146 111
282 152 229 68 382 76 485 25z"/>
<path d="M35555 34195 c-793 -116 -1417 -708 -1577 -1496 -20 -100 -23 -142
-23 -349 1 -216 3 -245 28 -361 159 -745 731 -1309 1482 -1459 138 -28 437
-38 583 -20 256 31 508 115 723 240 257 150 505 393 658 642 299 491 353 1107
144 1633 -97 243 -211 421 -393 609 -301 312 -662 497 -1091 560 -129 19 -405
20 -534 1z m532 -239 c66 -18 114 -47 155 -95 29 -34 38 -39 80 -39 113 -2
221 -91 277 -227 69 -164 64 -365 -9 -449 -27 -30 -28 -35 -15 -53 8 -12 20
-53 27 -93 11 -62 10 -80 -5 -136 -19 -75 -39 -106 -85 -131 -24 -13 -35 -28
-43 -58 -34 -140 -106 -269 -203 -367 -37 -38 -66 -70 -65 -72 2 -1 45 -18 95
-38 427 -166 718 -573 727 -1015 1 -56 -1 -104 -4 -107 -8 -8 -2318 -8 -2331
0 -7 5 -9 46 -5 123 23 452 308 841 732 1002 l80 30 -76 77 c-43 44 -92 107
-114 147 -42 73 -95 213 -95 246 0 11 -10 23 -22 28 -34 13 -65 51 -83 101
-20 54 -22 162 -6 213 12 34 10 44 -20 115 -25 61 -32 91 -31 142 2 240 120
429 333 534 218 107 549 164 706 122z"/>
<path d="M15611 34220 c-285 -36 -546 -169 -743 -378 -570 -607 -361 -1585
410 -1918 44 -19 125 -47 179 -61 91 -25 113 -27 298 -27 185 0 207 2 298 27
459 124 791 470 890 927 29 135 28 348 -2 483 -56 247 -168 446 -350 620 -217
208 -489 321 -796 332 -60 2 -143 0 -184 -5z m336 -161 c28 -8 60 -26 86 -50
28 -28 49 -39 70 -39 42 0 108 -41 140 -87 41 -60 59 -121 60 -204 1 -64 -3
-83 -26 -124 -20 -34 -24 -51 -16 -56 6 -4 8 -12 4 -19 -5 -7 -9 -41 -10 -74
-2 -76 -16 -112 -54 -134 -21 -12 -32 -27 -36 -52 -12 -62 -66 -162 -119 -216
l-51 -53 55 -20 c154 -57 314 -195 387 -336 22 -44 48 -105 57 -135 22 -72 38
-198 30 -232 l-6 -28 -744 0 c-683 0 -745 1 -751 17 -11 28 14 195 41 272 63
180 194 326 371 412 l106 52 -54 56 c-60 62 -85 106 -113 194 -10 34 -27 63
-40 72 -30 19 -57 95 -52 142 4 26 -3 59 -19 103 -44 116 -22 251 57 350 105
132 445 234 627 189z"/>
<path d="M10315 34024 c-16 -2 -66 -9 -110 -15 -381 -50 -757 -231 -1040 -501
-261 -249 -442 -561 -529 -913 -46 -186 -60 -482 -31 -684 46 -323 181 -635
385 -891 463 -580 1222 -833 1945 -649 129 33 222 67 350 129 666 321 1077
995 1052 1725 -9 246 -52 449 -142 659 -253 592 -777 1006 -1415 1117 -109 19
-394 33 -465 23z m389 -249 c81 -17 145 -52 181 -99 22 -29 32 -34 84 -39 150
-13 263 -142 307 -348 28 -130 2 -292 -56 -344 -16 -15 -16 -17 2 -54 47 -95
29 -252 -37 -318 -18 -18 -39 -33 -46 -33 -9 0 -27 -40 -47 -103 -41 -128 -96
-222 -187 -314 l-71 -73 51 -16 c161 -53 333 -163 460 -296 190 -196 288 -406
315 -674 6 -58 8 -120 4 -139 l-6 -34 -617 -3 c-339 -2 -865 -2 -1168 0 l-553
3 0 72 c0 361 194 725 490 923 95 63 204 118 289 147 l43 14 -38 29 c-97 74
-206 250 -241 389 -15 61 -21 73 -48 85 -20 10 -39 34 -57 69 -23 45 -28 67
-28 130 0 42 5 92 10 112 9 32 6 47 -20 112 -35 89 -40 175 -14 290 26 116 58
173 148 263 116 117 255 180 511 233 168 34 236 38 339 16z"/>
<path d="M47540 33784 c-370 -47 -660 -212 -869 -494 -184 -248 -266 -587
-215 -891 98 -586 599 -1009 1194 -1009 347 0 640 126 881 378 151 159 240
317 296 529 34 131 43 353 19 492 -86 492 -461 874 -961 976 -80 16 -279 27
-345 19z m347 -182 c24 -12 49 -33 58 -45 10 -16 26 -24 51 -25 104 -7 193
-121 202 -259 6 -93 -3 -135 -36 -174 -15 -18 -22 -34 -16 -36 6 -2 9 -35 7
-83 -2 -88 -20 -135 -58 -152 -15 -7 -26 -23 -30 -42 -13 -61 -74 -172 -123
-223 l-49 -51 68 -27 c260 -102 441 -348 456 -622 l6 -92 -399 -3 c-220 -2
-558 -2 -753 0 l-354 3 6 87 c18 263 169 488 401 601 45 21 89 41 98 44 15 5
9 15 -32 56 -51 51 -114 165 -126 228 -4 18 -16 39 -31 48 -34 23 -53 73 -53
141 0 39 -9 79 -26 123 -26 63 -26 69 -15 141 15 97 49 166 111 224 64 60 148
99 291 137 143 37 276 37 346 1z"/>
<path d="M3060 33649 c-348 -39 -642 -176 -888 -413 -257 -248 -407 -544 -453
-891 -16 -120 -6 -363 19 -480 112 -517 482 -936 978 -1108 394 -136 791 -112
1169 73 156 75 276 161 400 285 167 168 288 361 359 575 61 183 71 251 71 475
0 214 -10 282 -62 450 -209 666 -897 1113 -1593 1034z m425 -216 c22 -12 56
-37 74 -57 28 -29 42 -36 73 -36 133 0 258 -181 258 -375 0 -58 -26 -138 -56
-175 -20 -23 -23 -31 -12 -35 18 -7 24 -168 8 -211 -13 -33 -58 -84 -75 -84
-7 0 -19 -27 -29 -61 -27 -99 -82 -196 -150 -266 -35 -35 -60 -65 -57 -67 3
-2 24 -9 46 -16 181 -58 371 -210 481 -386 78 -126 134 -319 134 -465 l0 -58
-502 -3 c-277 -2 -701 -2 -942 0 l-439 3 7 102 c6 106 28 203 65 297 56 139
192 309 315 392 59 41 233 128 255 128 18 0 13 9 -26 43 -79 69 -153 196 -183
313 -6 25 -18 45 -33 53 -51 27 -83 128 -66 213 7 42 5 57 -21 122 -34 85 -36
105 -15 210 19 101 42 150 101 215 90 100 212 159 434 211 118 27 297 24 355
-7z"/>
<path d="M27940 33314 c-348 -40 -584 -104 -840 -227 -392 -188 -753 -513
-983 -887 -155 -253 -274 -589 -319 -905 -19 -135 -16 -475 6 -615 81 -526
309 -969 687 -1335 292 -283 659 -487 1045 -584 221 -55 315 -66 584 -66 268
0 363 11 581 65 773 194 1405 786 1649 1546 77 240 104 423 104 694 1 217 -9
314 -50 500 -52 231 -162 506 -281 700 -139 225 -367 478 -573 635 -317 242
-699 403 -1090 460 -101 15 -447 28 -520 19z m450 -305 c93 -15 172 -53 225
-110 25 -26 45 -52 45 -56 0 -4 33 -8 73 -8 93 -1 150 -26 222 -100 172 -176
234 -560 122 -760 l-23 -41 20 -44 c32 -68 30 -235 -3 -308 -24 -53 -80 -112
-106 -112 -19 0 -21 -5 -51 -107 -50 -176 -161 -358 -280 -459 l-55 -47 88
-32 c356 -128 651 -388 811 -717 95 -194 130 -335 139 -555 l6 -152 -804 -3
c-442 -2 -1101 -1 -1464 2 l-660 5 -3 55 c-5 82 17 273 43 377 74 291 255 573
480 748 147 114 259 175 469 255 l28 10 -65 61 c-36 33 -87 88 -113 122 -76
102 -155 276 -179 395 -4 21 -16 37 -33 46 -76 40 -113 114 -119 241 -4 74 -1
101 16 152 l21 63 -34 82 c-43 105 -50 154 -36 255 28 211 76 313 203 438 127
126 243 183 507 254 210 55 376 72 510 50z"/>
<path d="M42220 31554 c-324 -39 -574 -111 -835 -241 -456 -227 -827 -599
-1049 -1053 -162 -331 -236 -648 -236 -1015 0 -370 72 -678 235 -1012 125
-254 257 -434 471 -643 195 -190 350 -299 599 -420 408 -200 854 -277 1299
-225 447 52 889 240 1224 519 543 452 842 1081 842 1773 0 346 -61 642 -195
943 -280 632 -857 1123 -1529 1301 -206 55 -331 71 -571 74 -121 2 -236 1
-255 -1z m557 -318 c66 -21 140 -71 178 -121 30 -40 30 -40 100 -40 87 0 142
-25 213 -96 172 -172 234 -543 127 -755 -22 -44 -23 -50 -10 -82 66 -156 19
-375 -89 -423 -39 -17 -43 -23 -54 -71 -40 -173 -148 -364 -272 -482 -40 -37
-70 -69 -68 -70 1 -1 39 -15 83 -30 190 -67 360 -173 513 -320 125 -120 212
-234 280 -365 102 -196 152 -392 155 -606 l2 -130 -785 -5 c-432 -3 -1091 -4
-1464 -2 l-679 3 6 152 c7 166 25 265 77 412 86 242 261 487 453 633 95 73
263 168 377 213 l108 43 -68 63 c-130 120 -224 277 -275 458 -14 50 -29 91
-33 93 -36 12 -75 49 -96 90 -48 95 -55 210 -19 328 l16 52 -34 78 c-33 76
-34 84 -33 194 2 131 24 233 74 334 56 113 191 242 325 309 110 55 304 114
490 148 123 23 322 20 402 -5z"/>
<path d="M18640 30855 c-547 -67 -1061 -281 -1490 -621 -121 -96 -392 -371
-481 -489 -518 -681 -708 -1488 -548 -2323 74 -387 272 -830 511 -1146 392
-518 919 -884 1529 -1061 418 -121 891 -148 1318 -74 485 84 936 285 1325 591
147 116 394 370 506 520 316 422 498 868 567 1387 23 174 22 531 -1 701 -71
518 -254 969 -557 1370 -482 638 -1205 1052 -1999 1144 -163 19 -527 20 -680
1z m750 -383 c92 -30 167 -78 218 -142 l45 -54 86 -1 c72 0 95 -4 145 -27 197
-93 346 -408 346 -731 0 -123 -17 -206 -61 -304 -15 -35 -24 -65 -19 -68 14
-9 47 -123 54 -190 20 -168 -67 -366 -170 -389 -27 -6 -31 -13 -52 -99 -58
-234 -194 -462 -362 -607 l-69 -58 82 -27 c121 -39 369 -165 476 -242 187
-134 374 -333 492 -523 170 -274 269 -635 257 -940 l-3 -85 -985 -5 c-542 -3
-1363 -3 -1825 0 l-840 5 -3 110 c-6 211 35 436 118 647 95 240 273 498 453
658 172 153 396 285 619 364 l87 32 -61 49 c-181 149 -332 404 -388 657 -12
53 -16 59 -55 78 -134 65 -191 362 -103 534 l20 39 -31 66 c-60 130 -70 209
-51 371 28 225 106 387 261 540 125 123 283 204 546 280 240 68 380 90 568 86
108 -3 155 -8 205 -24z"/>
<path d="M47228 29030 c-129 -27 -211 -56 -330 -117 -520 -268 -770 -883 -584
-1437 124 -367 432 -664 802 -771 130 -38 215 -49 359 -48 580 3 1071 410
1181 980 23 117 22 330 -1 438 -54 254 -155 444 -329 620 -178 179 -403 296
-650 340 -123 21 -336 19 -448 -5z m429 -145 c31 -9 63 -28 84 -50 19 -19 44
-35 57 -35 12 0 39 -7 60 -16 86 -35 142 -126 150 -241 6 -89 -2 -131 -32
-176 -21 -30 -22 -36 -9 -41 12 -5 13 -10 4 -20 -6 -7 -8 -27 -5 -44 13 -63
-33 -172 -72 -172 -6 0 -15 -17 -19 -37 -11 -63 -63 -159 -115 -216 -53 -59
-58 -67 -36 -67 29 0 193 -91 248 -137 162 -135 257 -331 258 -526 l0 -77
-747 2 -748 3 1 76 c4 273 192 539 453 640 l59 23 -49 55 c-53 57 -98 136
-120 211 -8 25 -26 55 -41 68 -32 27 -48 78 -47 148 1 28 -5 63 -14 80 -30 58
-37 106 -26 174 14 91 42 147 102 208 77 80 175 124 355 162 108 23 183 24
249 5z"/>
<path d="M36435 28650 c-430 -91 -771 -393 -909 -805 -76 -226 -76 -517 0
-742 140 -418 493 -724 932 -809 137 -27 339 -23 478 9 256 59 446 166 627
357 301 314 403 770 265 1190 -133 409 -507 730 -937 805 -120 21 -343 18
-456 -5z m472 -158 c23 -12 49 -32 60 -45 12 -16 33 -26 62 -30 65 -8 120 -52
158 -124 53 -104 56 -226 7 -299 -18 -27 -22 -39 -13 -44 7 -5 8 -13 4 -21 -5
-7 -7 -36 -6 -65 3 -63 -27 -139 -58 -149 -13 -4 -24 -20 -32 -48 -20 -77 -62
-151 -117 -209 -48 -50 -52 -58 -36 -64 277 -100 462 -316 504 -592 6 -39 10
-88 8 -109 l-3 -38 -747 -3 -748 -2 0 77 c1 277 180 531 453 643 31 13 57 26
57 29 0 3 -18 24 -40 45 -55 54 -94 118 -120 196 -12 35 -30 70 -41 78 -33 23
-51 72 -53 146 -2 48 -9 83 -22 106 -25 47 -26 174 0 248 22 65 104 157 173
194 172 94 445 133 550 80z"/>
<path d="M6165 28274 c-837 -87 -1541 -568 -1901 -1300 -509 -1038 -166 -2282
811 -2939 253 -169 579 -297 914 -357 171 -30 556 -33 726 -5 263 44 471 109
691 217 1231 605 1673 2124 956 3284 -128 207 -328 434 -515 586 -250 201
-565 361 -871 441 -209 54 -333 71 -561 74 -115 2 -228 1 -250 -1z m496 -308
c93 -20 158 -56 213 -117 47 -52 48 -53 100 -50 217 10 406 -266 406 -594 0
-110 -17 -194 -54 -266 -20 -39 -22 -49 -11 -70 24 -48 38 -132 32 -204 -9
-118 -54 -200 -131 -236 -24 -12 -32 -25 -46 -79 -47 -179 -134 -332 -260
-454 -44 -43 -79 -80 -78 -81 2 -1 39 -14 83 -29 355 -124 657 -394 820 -731
84 -176 125 -344 132 -552 l6 -142 -804 -3 c-442 -2 -1101 -1 -1464 2 l-660 5
1 130 c2 206 47 391 139 575 178 355 463 598 862 735 6 2 -30 46 -80 97 -113
115 -176 218 -228 371 -22 61 -39 120 -39 129 0 10 -13 24 -29 32 -44 23 -89
81 -106 138 -21 71 -19 199 4 266 l19 54 -35 85 c-19 47 -37 111 -40 142 -6
63 16 203 46 302 51 165 215 332 403 411 128 54 395 126 518 141 81 9 220 6
281 -7z"/>
<path d="M32950 25673 c-756 -57 -1454 -329 -2040 -797 -150 -120 -435 -403
-546 -541 -432 -542 -685 -1134 -776 -1818 -17 -130 -22 -215 -22 -427 -1
-343 24 -556 99 -865 252 -1031 968 -1913 1930 -2380 561 -272 1162 -395 1785
-364 770 37 1503 315 2105 796 130 103 376 341 484 468 841 982 1091 2314 661
3530 -263 747 -816 1433 -1493 1851 -508 314 -1066 497 -1661 544 -119 9 -420
11 -526 3z m600 -467 c191 -14 359 -101 440 -229 31 -50 38 -55 60 -49 14 4
66 7 115 7 82 0 97 -3 157 -33 95 -46 197 -157 265 -288 173 -330 208 -736 87
-1005 l-26 -58 27 -56 c97 -206 60 -517 -77 -640 -26 -24 -64 -47 -85 -52 -35
-8 -37 -10 -50 -75 -60 -299 -254 -630 -477 -818 l-76 -63 98 -32 c727 -245
1283 -832 1467 -1549 47 -183 66 -332 66 -524 1 -90 -1 -166 -4 -168 -6 -6
-4547 -5 -4558 1 -5 4 -9 65 -9 136 0 489 150 932 457 1347 74 100 257 288
358 367 186 146 477 306 683 375 56 19 102 37 102 40 0 3 -19 19 -41 35 -71
52 -232 227 -290 315 -102 154 -172 311 -219 494 -27 107 -29 110 -66 128 -89
43 -150 137 -179 275 -27 126 -14 285 32 392 19 43 19 44 -3 90 -52 111 -77
343 -55 516 35 273 120 460 291 639 169 177 351 275 700 376 267 78 555 124
705 113 17 -1 64 -5 105 -7z"/>
<path d="M25430 25574 c-14 -2 -68 -11 -120 -20 -185 -31 -394 -116 -565 -230
-333 -221 -569 -580 -642 -978 -26 -138 -23 -410 5 -542 46 -212 132 -412 249
-578 74 -104 245 -275 349 -349 432 -306 1001 -366 1486 -157 245 106 474 291
627 506 72 102 168 292 205 409 139 433 73 895 -181 1279 -87 133 -273 319
-402 405 -172 114 -350 189 -549 232 -93 20 -395 35 -462 23z m420 -215 c28
-12 63 -36 78 -54 22 -24 40 -33 75 -38 119 -17 203 -105 242 -254 29 -110 17
-218 -31 -289 -24 -35 -25 -39 -9 -50 9 -7 12 -15 6 -18 -6 -4 -6 -19 1 -43
22 -79 -12 -187 -70 -220 -21 -12 -33 -34 -54 -100 -32 -98 -80 -178 -150
-249 l-50 -52 38 -12 c79 -26 214 -101 287 -160 207 -166 337 -431 337 -687
l0 -73 -934 0 -934 0 -7 29 c-8 39 10 201 31 271 62 210 198 398 365 507 62
39 175 96 233 117 16 5 9 16 -47 75 -69 73 -125 173 -148 260 -9 38 -22 58
-45 76 -48 37 -68 98 -61 192 4 68 2 85 -21 138 -39 92 -31 221 21 334 32 69
127 163 204 204 74 38 233 90 328 106 33 6 71 13 85 15 56 10 181 -4 230 -25z"/>
<path d="M12689 24600 c-618 -112 -1089 -564 -1221 -1173 -32 -148 -32 -446 0
-594 133 -610 612 -1069 1227 -1175 102 -17 147 -19 300 -15 246 8 383 39 595
139 181 85 311 179 456 331 190 198 319 445 380 727 27 122 27 458 0 580 -115
530 -495 956 -1001 1125 -155 52 -247 66 -445 71 -152 3 -204 0 -291 -16z
m519 -200 c28 -12 65 -37 80 -55 22 -24 40 -33 75 -38 130 -18 219 -123 249
-295 16 -96 1 -189 -41 -248 -21 -31 -26 -44 -16 -47 9 -4 13 -32 14 -96 2
-104 -19 -161 -70 -189 -16 -9 -32 -28 -35 -42 -25 -110 -87 -223 -164 -300
l-58 -58 42 -12 c62 -18 194 -87 254 -132 225 -168 360 -422 365 -683 l2 -100
-935 0 -935 0 1 95 c1 52 9 126 18 163 51 216 192 423 368 540 59 39 200 110
239 120 22 6 19 11 -43 74 -71 74 -124 168 -153 268 -11 43 -23 64 -38 70 -12
6 -32 30 -45 55 -20 38 -23 58 -21 135 2 77 -2 100 -25 160 -30 74 -30 125 -4
235 29 119 128 235 251 294 213 103 496 141 625 86z"/>
<path d="M46030 24459 c-378 -49 -737 -211 -1020 -461 -431 -381 -668 -960
-620 -1519 21 -251 73 -443 180 -666 70 -146 127 -237 226 -360 492 -607 1311
-847 2057 -602 475 155 877 505 1096 952 320 652 224 1436 -244 1996 -297 356
-715 587 -1186 655 -114 17 -376 20 -489 5z m551 -266 c44 -20 77 -45 99 -72
31 -38 37 -41 85 -41 176 0 318 -211 318 -470 0 -102 -20 -170 -65 -217 -19
-21 -20 -24 -6 -40 24 -28 39 -138 28 -205 -13 -84 -45 -134 -101 -164 -19 -9
-29 -25 -34 -50 -23 -124 -109 -277 -214 -379 l-61 -59 73 -26 c364 -134 629
-423 729 -798 13 -50 22 -123 25 -209 l6 -133 -639 -2 c-352 -2 -879 -2 -1173
0 l-534 2 6 128 c9 213 72 402 195 584 137 203 337 351 596 442 15 5 9 16 -47
71 -36 35 -83 92 -106 127 -43 66 -94 186 -106 251 -6 29 -16 44 -41 60 -72
46 -110 187 -81 296 15 53 14 55 -16 125 -27 62 -31 81 -30 156 1 100 31 223
70 289 14 25 58 78 97 117 88 88 186 140 359 190 180 52 257 64 387 61 105 -3
121 -6 181 -34z"/>
<path d="M1949 23674 c-175 -31 -385 -121 -520 -224 -83 -62 -222 -207 -274
-286 -137 -205 -205 -428 -205 -673 0 -205 39 -363 137 -553 332 -642 1163
-843 1770 -426 371 254 574 733 498 1172 -89 509 -481 902 -989 991 -108 18
-312 18 -417 -1z m429 -159 c23 -10 53 -30 66 -46 15 -17 35 -29 48 -29 47 0
125 -49 158 -98 67 -102 79 -251 27 -331 -14 -21 -22 -42 -18 -47 4 -5 5 -46
1 -90 -7 -85 -27 -132 -59 -141 -11 -3 -25 -29 -39 -72 -26 -79 -84 -174 -132
-214 -18 -15 -31 -29 -29 -31 2 -1 27 -11 54 -20 140 -50 297 -181 373 -311
57 -97 92 -210 99 -322 l6 -93 -751 0 -752 0 0 73 c0 127 49 274 132 395 72
105 222 218 340 258 l48 15 -51 51 c-51 51 -129 191 -129 230 0 10 -12 28 -26
41 -39 34 -54 70 -54 135 0 39 -9 82 -25 126 -28 74 -30 110 -14 188 32 149
142 249 339 308 172 52 301 60 388 25z"/>
<path d="M39945 21769 c-339 -45 -631 -192 -876 -438 -293 -295 -432 -630
-433 -1041 0 -195 16 -299 75 -475 75 -225 186 -402 364 -580 557 -558 1454
-589 2057 -71 120 104 242 253 323 396 142 251 213 571 186 846 -37 377 -173
667 -435 930 -222 222 -479 359 -786 419 -101 20 -373 28 -475 14z m456 -210
c27 -12 62 -36 77 -54 22 -24 40 -33 75 -38 150 -21 257 -174 257 -367 0 -80
-14 -135 -47 -178 -20 -27 -22 -36 -12 -48 7 -9 12 -49 13 -102 1 -98 -16
-141 -71 -177 -23 -15 -33 -33 -43 -70 -21 -88 -79 -191 -146 -264 l-64 -69
37 -12 c73 -24 217 -105 288 -162 208 -166 335 -427 335 -684 l0 -74 -507 -2
c-280 -2 -700 -2 -934 0 l-427 2 -6 31 c-7 39 8 184 29 264 18 71 81 206 126
273 91 133 265 272 411 328 40 15 75 29 77 31 2 1 -25 34 -61 72 -70 73 -126
173 -149 260 -9 38 -22 58 -45 76 -49 37 -68 99 -61 193 5 64 3 85 -14 122
-36 79 -40 121 -24 216 37 209 168 333 430 409 198 57 358 66 456 24z"/>
<path d="M24915 19284 c-324 -34 -563 -100 -832 -229 -711 -342 -1176 -976
-1299 -1770 -34 -222 -20 -578 32 -805 160 -696 618 -1275 1248 -1580 225
-109 405 -167 655 -212 171 -31 577 -33 741 -5 432 75 804 241 1125 500 110
88 307 293 392 408 230 306 375 651 440 1044 22 135 25 524 5 650 -82 506
-284 922 -618 1274 -361 380 -834 625 -1359 706 -105 16 -441 28 -530 19z
m540 -325 c59 -20 80 -34 135 -88 64 -64 66 -64 115 -62 217 11 407 -265 409
-594 0 -115 -15 -188 -55 -268 -20 -38 -20 -38 2 -102 28 -83 24 -225 -8 -295
-23 -52 -67 -99 -104 -112 -22 -8 -29 -21 -48 -91 -47 -175 -153 -353 -277
-465 l-64 -58 72 -23 c81 -26 238 -101 319 -153 399 -256 649 -702 649 -1160
l0 -118 -772 -1 c-1379 0 -2142 2 -2147 7 -11 11 -2 235 13 322 55 321 246
653 485 844 112 89 282 188 411 239 l108 42 -51 42 c-137 112 -254 307 -301
503 -12 45 -23 72 -32 72 -25 0 -82 60 -105 112 -31 70 -34 227 -6 300 l18 47
-37 93 c-33 82 -37 103 -37 173 2 107 35 254 78 341 78 159 242 292 454 368
299 107 607 141 776 85z"/>
<path d="M15090 18884 c-1056 -92 -1959 -572 -2606 -1386 -425 -535 -687
-1197 -754 -1903 -13 -142 -13 -468 0 -615 34 -369 128 -744 272 -1085 416
-987 1279 -1754 2313 -2059 345 -102 659 -146 1038 -146 427 0 787 58 1178
190 531 179 1002 472 1404 875 573 572 919 1272 1031 2080 25 187 30 601 9
805 -79 776 -387 1466 -916 2056 -296 331 -656 602 -1069 808 -380 189 -775
309 -1190 361 -119 15 -605 28 -710 19z m710 -481 c152 -30 293 -122 357 -230
22 -38 28 -42 51 -35 15 4 68 7 117 7 78 -1 98 -4 147 -29 191 -92 353 -373
413 -713 19 -112 19 -311 0 -402 -16 -76 -59 -207 -74 -225 -7 -8 0 -32 19
-71 40 -83 54 -152 54 -275 0 -119 -22 -208 -74 -298 -34 -58 -95 -108 -144
-118 -30 -5 -33 -9 -45 -67 -35 -173 -127 -390 -232 -547 -64 -96 -208 -253
-278 -305 -22 -16 -41 -32 -41 -35 0 -3 21 -12 48 -18 80 -22 272 -101 381
-158 363 -191 670 -476 883 -820 143 -231 240 -489 290 -767 16 -95 21 -165
22 -317 l1 -195 -1230 -5 c-676 -3 -1702 -3 -2280 0 l-1050 5 -3 145 c-10 496
165 983 505 1405 185 230 435 422 748 576 101 49 162 74 334 134 9 4 -2 16
-30 37 -65 47 -187 173 -251 258 -119 160 -213 359 -265 563 -25 101 -28 107
-58 117 -17 6 -52 32 -78 58 -78 80 -117 197 -117 354 0 108 12 179 43 252 20
46 20 49 3 80 -37 68 -58 177 -63 328 -13 364 85 637 313 865 88 88 212 175
327 228 233 108 663 218 932 239 81 6 244 -4 325 -21z"/>
<path d="M4433 18754 c-781 -114 -1406 -698 -1569 -1468 -35 -165 -44 -456
-20 -626 113 -782 698 -1401 1480 -1566 152 -32 439 -44 605 -24 576 68 1100
410 1396 911 341 577 337 1310 -10 1884 -137 228 -342 443 -565 592 -228 153
-498 256 -781 297 -130 19 -405 19 -536 0z m552 -245 c52 -16 77 -31 118 -71
48 -47 56 -52 104 -54 146 -8 267 -146 309 -353 25 -128 4 -281 -47 -327 -21
-19 -25 -44 -9 -60 5 -5 15 -41 21 -79 20 -119 -14 -223 -88 -270 -26 -17 -36
-35 -58 -105 -44 -140 -113 -252 -214 -347 -25 -23 -43 -44 -40 -46 2 -2 47
-20 99 -40 340 -133 600 -425 690 -774 23 -88 39 -243 32 -310 l-4 -43 -632
-2 c-347 -2 -873 -2 -1168 0 l-538 2 0 78 c0 276 110 553 304 768 94 106 279
227 431 285 l80 30 -82 84 c-69 70 -90 101 -132 187 -27 57 -56 129 -63 162
-9 42 -19 61 -33 66 -29 11 -62 50 -81 95 -20 48 -22 164 -5 218 12 34 10 44
-20 115 -37 91 -41 160 -14 286 49 233 217 383 520 467 232 63 399 76 520 38z"/>
<path d="M47859 18440 c-288 -28 -523 -138 -731 -339 -372 -359 -473 -892
-257 -1359 126 -274 383 -512 668 -619 478 -180 1030 -38 1357 350 177 209
270 447 281 718 9 224 -25 389 -122 584 -167 337 -474 571 -843 644 -118 23
-251 31 -353 21z m307 -165 c31 -9 63 -28 84 -50 22 -22 43 -35 60 -35 42 0
112 -42 147 -88 70 -92 85 -262 30 -339 -15 -20 -23 -40 -19 -43 5 -3 5 -44 2
-91 -6 -90 -23 -132 -58 -143 -12 -4 -26 -30 -40 -76 -26 -78 -88 -177 -135
-215 l-32 -25 25 -7 c14 -4 66 -27 115 -52 74 -36 107 -61 181 -136 78 -77 98
-105 137 -185 51 -106 80 -225 75 -311 l-3 -54 -747 -3 -748 -2 0 67 c0 101
24 198 74 298 81 162 181 260 346 339 41 20 81 36 88 36 8 0 -12 28 -43 62
-58 63 -110 155 -121 216 -4 19 -17 40 -29 48 -35 23 -55 75 -55 143 0 44 -8
80 -26 124 -23 53 -25 70 -20 125 22 214 154 327 456 392 105 23 191 25 256 5z"/>
<path d="M36610 17555 c-8 -2 -49 -9 -90 -15 -102 -17 -237 -63 -343 -118
-328 -168 -568 -492 -633 -852 -18 -100 -18 -317 1 -422 73 -419 386 -781 796
-922 120 -41 213 -57 354 -63 808 -32 1418 723 1213 1502 -139 528 -629 900
-1178 894 -58 -1 -112 -3 -120 -4z m329 -167 c18 -6 50 -25 70 -43 21 -19 53
-35 76 -39 56 -11 88 -30 129 -77 80 -94 98 -272 36 -359 -13 -19 -16 -30 -8
-38 5 -5 7 -15 4 -21 -4 -6 -8 -42 -9 -79 -3 -73 -24 -120 -57 -129 -13 -3
-25 -26 -39 -71 -23 -77 -66 -150 -123 -208 l-40 -42 39 -12 c96 -31 178 -85
274 -180 80 -79 103 -109 138 -180 49 -101 69 -176 78 -287 l6 -82 -404 -3
c-222 -2 -561 -2 -753 0 l-348 3 4 97 c13 271 198 523 458 622 l55 21 -52 54
c-56 58 -92 120 -116 203 -10 33 -27 62 -45 77 -33 28 -57 101 -47 145 4 17
-3 52 -20 96 -50 130 -18 272 84 374 123 122 449 207 610 158z"/>
<path d="M42810 16433 c-672 -69 -1276 -345 -1749 -798 -494 -474 -792 -1068
-876 -1745 -20 -162 -20 -494 0 -664 47 -403 182 -799 388 -1141 485 -805
1317 -1323 2258 -1406 183 -16 504 -6 681 21 510 77 1001 290 1398 606 117 93
371 348 466 469 637 806 797 1878 422 2829 -195 494 -523 926 -953 1251 -154
116 -264 184 -455 279 -319 159 -624 249 -980 291 -113 14 -498 19 -600 8z
m670 -388 c112 -35 188 -85 242 -160 l29 -40 87 0 c79 0 94 -3 154 -33 194
-95 338 -405 338 -725 0 -122 -16 -205 -59 -302 -26 -59 -26 -60 -8 -96 94
-192 25 -506 -121 -550 -36 -10 -38 -13 -56 -89 -56 -239 -199 -479 -373 -626
l-61 -52 106 -37 c137 -47 331 -147 452 -233 127 -90 305 -264 400 -390 226
-300 340 -634 343 -1002 l2 -155 -985 -5 c-542 -3 -1363 -3 -1825 0 l-840 5 1
165 c2 341 91 620 297 932 113 172 295 354 462 464 140 92 269 158 411 212
l102 38 -69 58 c-169 142 -305 369 -372 620 -21 78 -26 90 -53 101 -43 18 -99
85 -125 151 -20 50 -23 77 -23 179 -1 108 2 126 27 186 l27 66 -34 74 c-51
111 -62 184 -48 326 7 65 21 151 32 191 67 240 256 455 494 561 149 67 466
156 641 180 105 15 339 6 405 -14z"/>
<path d="M29995 15714 c-248 -38 -462 -117 -650 -242 -343 -227 -577 -580
-651 -982 -27 -144 -25 -392 4 -538 100 -498 429 -901 897 -1097 189 -79 369
-114 587 -115 395 0 757 145 1041 419 142 137 223 246 302 406 115 232 158
414 158 665 0 250 -43 432 -158 665 -139 281 -365 510 -644 654 -137 70 -229
104 -371 138 -89 21 -135 25 -295 28 -104 2 -203 1 -220 -1z m445 -211 c25
-11 61 -37 79 -57 22 -23 44 -36 60 -36 113 0 226 -114 260 -261 13 -57 14
-164 1 -210 -6 -20 -22 -54 -36 -74 -17 -26 -22 -40 -14 -45 6 -4 13 -38 16
-76 7 -109 -28 -196 -87 -216 -8 -4 -23 -33 -33 -69 -26 -93 -82 -193 -148
-262 -31 -34 -56 -61 -55 -62 1 -1 34 -13 72 -28 136 -52 275 -150 368 -260
140 -163 224 -389 215 -578 l-3 -64 -931 -3 -931 -2 -7 31 c-10 54 13 217 45
312 53 159 154 309 273 408 69 57 225 145 296 168 l35 11 -65 68 c-72 74 -131
181 -153 272 -9 38 -18 56 -35 63 -12 6 -33 27 -45 46 -19 31 -22 51 -23 141
-1 80 -6 116 -21 150 -31 70 -34 104 -17 197 20 117 42 162 116 239 75 78 134
114 257 154 222 72 411 88 511 43z"/>
<path d="M35385 13345 c-349 -53 -669 -192 -926 -401 -102 -83 -276 -269 -352
-374 -129 -181 -249 -455 -296 -675 -59 -273 -53 -585 14 -845 139 -538 504
-980 1005 -1219 608 -289 1314 -237 1871 138 379 255 649 637 764 1081 33 129
47 228 52 392 8 234 -18 420 -87 638 -42 130 -166 375 -247 490 -77 107 -244
285 -348 370 -231 189 -511 321 -819 386 -102 22 -154 26 -331 29 -146 3 -238
0 -300 -10z m541 -246 c57 -17 79 -31 123 -75 50 -50 58 -54 100 -54 62 0 137
-37 188 -93 135 -147 175 -425 82 -572 l-30 -47 18 -37 c13 -27 18 -59 18
-126 0 -111 -28 -178 -86 -209 -32 -17 -39 -28 -58 -95 -43 -145 -126 -281
-222 -364 l-47 -40 65 -23 c453 -158 761 -578 767 -1044 l1 -95 -635 -5 c-349
-3 -876 -3 -1170 0 l-535 5 2 109 c2 122 13 185 49 301 105 328 359 593 691
720 l71 28 -59 54 c-101 94 -201 269 -224 394 -5 24 -14 40 -30 47 -29 13 -69
66 -84 111 -14 43 -14 153 0 201 10 33 8 47 -20 118 -36 94 -40 160 -16 280
23 112 64 188 145 271 82 83 162 129 302 177 240 81 460 104 594 63z"/>
<path d="M21251 12050 c-500 -63 -941 -370 -1166 -814 -412 -813 1 -1800 873
-2086 168 -55 287 -73 472 -73 186 0 306 18 471 73 238 79 420 191 600 370
216 215 344 454 411 765 31 145 31 416 -1 565 -114 535 -497 967 -1007 1134
-186 61 -466 89 -653 66z m358 -190 c78 -13 130 -39 166 -82 16 -18 34 -32 42
-30 29 6 124 -30 159 -60 78 -69 124 -181 124 -305 0 -95 -12 -142 -47 -184
-23 -27 -25 -33 -12 -43 10 -8 14 -34 14 -101 0 -106 -18 -155 -66 -184 -26
-16 -36 -33 -54 -88 -34 -106 -72 -172 -142 -244 l-63 -66 47 -18 c369 -137
613 -470 613 -836 l0 -79 -502 -2 c-277 -2 -698 -2 -935 0 l-433 2 0 89 c0
159 54 324 155 476 96 144 239 259 414 331 36 15 68 29 70 31 2 1 -25 33 -60
71 -70 73 -130 181 -150 269 -8 36 -18 55 -31 59 -10 3 -31 24 -46 47 -25 37
-27 49 -28 146 -1 84 -6 117 -23 159 -33 83 -22 232 25 325 28 54 101 133 159
172 109 72 335 138 525 154 8 0 44 -4 79 -9z"/>
<path d="M28065 9844 c-16 -2 -73 -9 -125 -15 -877 -100 -1703 -641 -2155
-1412 -185 -316 -309 -668 -366 -1038 -31 -195 -33 -610 -6 -794 97 -650 369
-1195 822 -1650 449 -450 1002 -727 1655 -830 161 -26 559 -31 734 -11 991
115 1842 700 2282 1568 224 443 323 877 311 1368 -11 446 -104 824 -297 1211
-386 772 -1091 1329 -1943 1534 -210 51 -352 67 -627 70 -140 2 -268 1 -285
-1z m658 -398 c43 -14 94 -37 115 -50 40 -26 103 -89 120 -121 9 -18 21 -20
99 -20 80 0 95 -3 155 -33 170 -83 302 -323 338 -616 20 -153 1 -291 -56 -415
l-24 -54 26 -66 c47 -117 43 -289 -9 -400 -27 -58 -86 -117 -126 -126 -23 -5
-32 -13 -37 -33 -16 -80 -71 -238 -109 -314 -64 -129 -136 -227 -242 -328 -57
-55 -89 -92 -81 -95 7 -2 53 -19 103 -36 388 -135 760 -445 959 -800 149 -264
214 -501 223 -806 l5 -172 -1003 -3 c-552 -2 -1375 -1 -1829 2 l-825 5 -3 80
c-15 385 139 826 401 1150 186 230 486 438 784 544 l90 33 -112 111 c-119 119
-172 193 -234 322 -35 71 -90 233 -105 306 -4 17 -16 31 -36 39 -52 21 -108
95 -133 174 -30 97 -29 236 2 321 34 93 35 99 8 151 -52 105 -60 146 -55 293
8 215 55 357 170 513 126 171 276 268 548 357 187 60 290 84 505 115 17 2 89
3 160 1 109 -3 144 -8 208 -29z"/>
<path d="M46600 9403 c-327 -24 -609 -156 -823 -383 -432 -459 -432 -1170 1
-1632 232 -247 539 -380 882 -381 211 0 381 41 570 139 713 368 865 1322 301
1894 -164 166 -370 282 -593 334 -92 21 -257 36 -338 29z m258 -168 c32 -10
64 -29 85 -50 22 -23 43 -35 61 -35 70 0 161 -82 189 -171 32 -96 18 -228 -29
-280 -13 -15 -13 -17 2 -23 13 -5 14 -9 5 -20 -8 -9 -10 -28 -6 -49 12 -63
-32 -167 -71 -167 -6 0 -15 -17 -19 -37 -11 -63 -63 -159 -117 -218 -28 -31
-49 -57 -47 -59 2 -1 27 -11 54 -21 167 -61 313 -194 395 -360 48 -98 70 -186
70 -288 l0 -77 -747 2 -748 3 -3 38 c-5 55 15 171 43 250 64 186 217 346 404
424 37 15 67 27 68 28 2 1 -20 25 -47 53 -52 54 -100 139 -120 211 -7 26 -23
53 -40 68 -36 30 -51 75 -49 144 1 30 -3 64 -8 74 -34 64 -43 116 -33 183 28
174 132 280 335 341 170 52 283 62 373 36z"/>
<path d="M34036 8624 c-490 -89 -886 -485 -971 -972 -19 -108 -19 -306 0 -413
64 -370 305 -693 645 -864 182 -91 344 -129 555 -128 347 1 639 129 882 387
197 210 307 469 320 756 26 602 -400 1131 -995 1235 -108 19 -329 18 -436 -1z
m414 -150 c33 -10 67 -29 87 -49 22 -22 45 -34 74 -38 155 -21 256 -285 163
-423 -18 -27 -22 -39 -13 -44 7 -5 8 -13 4 -21 -5 -7 -7 -36 -6 -65 3 -62 -26
-139 -57 -148 -13 -5 -26 -28 -41 -74 -26 -78 -67 -145 -123 -201 l-40 -41 29
-11 c151 -63 230 -115 312 -204 63 -70 123 -170 150 -251 25 -75 43 -189 39
-241 l-3 -38 -749 -3 -749 -2 6 102 c13 273 181 505 447 617 30 13 57 25 59
27 2 2 -14 22 -37 44 -55 56 -96 123 -122 200 -12 35 -30 70 -41 78 -33 23
-51 71 -51 136 -1 41 -9 82 -26 124 -58 148 9 330 158 424 25 16 88 42 140 59
182 59 295 71 390 43z"/>
<path d="M10505 7070 c-707 -81 -1327 -459 -1715 -1046 -182 -275 -304 -599
-356 -944 -24 -157 -24 -472 -1 -630 40 -259 103 -463 217 -695 229 -469 594
-834 1065 -1065 353 -173 701 -248 1105 -237 372 10 693 93 1018 262 211 110
373 228 551 400 606 587 845 1467 615 2270 -252 876 -968 1512 -1879 1666
-137 23 -486 34 -620 19z m598 -319 c70 -25 128 -65 166 -117 28 -36 31 -38
83 -35 208 9 383 -226 413 -554 8 -91 -15 -221 -53 -297 -16 -32 -26 -61 -22
-63 4 -3 16 -34 25 -70 22 -81 16 -209 -13 -275 -20 -47 -82 -110 -107 -110
-19 0 -21 -5 -50 -106 -53 -179 -130 -311 -256 -435 l-77 -75 47 -14 c79 -23
199 -78 295 -134 345 -205 587 -538 672 -927 9 -41 18 -143 21 -227 l6 -152
-779 0 c-1447 -1 -2138 1 -2144 6 -11 12 -1 245 15 334 91 496 433 899 917
1080 l86 33 -51 42 c-144 118 -276 345 -312 538 -4 21 -13 37 -21 37 -26 0
-82 60 -104 112 -34 78 -39 203 -11 285 l21 62 -30 77 c-46 115 -53 159 -40
255 28 215 76 318 204 444 72 72 109 100 181 137 131 66 307 121 510 159 134
25 324 20 408 -10z"/>
<path d="M40090 6525 c-964 -132 -1665 -957 -1627 -1915 24 -593 328 -1135
822 -1465 489 -328 1093 -409 1650 -224 685 228 1179 830 1266 1543 7 63 10
165 6 285 -6 205 -29 341 -87 513 -45 134 -169 378 -247 488 -77 107 -244 285
-348 370 -212 174 -514 319 -775 375 -209 45 -467 56 -660 30z m544 -251 c32
-11 70 -37 105 -71 50 -48 59 -53 100 -53 98 0 199 -78 261 -199 79 -157 81
-389 4 -481 -26 -30 -26 -31 -9 -67 24 -49 31 -158 15 -223 -13 -54 -72 -130
-101 -130 -10 0 -21 -25 -33 -71 -31 -121 -96 -238 -186 -333 l-80 -83 63 -23
c460 -165 767 -592 767 -1067 l0 -72 -627 -3 c-346 -2 -872 -2 -1169 0 l-542
3 -6 39 c-8 53 10 218 35 315 57 223 210 461 382 593 105 81 252 161 380 206
16 5 10 14 -38 58 -104 94 -185 231 -220 369 -14 52 -23 68 -48 84 -70 45
-103 170 -77 293 11 55 10 61 -15 123 -36 84 -42 164 -21 270 26 128 63 199
154 289 58 58 98 88 160 119 89 45 265 99 402 125 107 20 274 15 344 -10z"/>
<path d="M19339 5830 c-896 -87 -1590 -758 -1700 -1644 -7 -63 -10 -161 -6
-275 6 -194 31 -338 87 -511 43 -132 167 -377 247 -489 84 -117 261 -303 369
-387 508 -397 1163 -509 1775 -304 594 198 1062 702 1212 1305 46 183 52 240
51 465 0 193 -3 228 -27 341 -69 328 -194 586 -406 841 -286 342 -706 575
-1159 643 -124 19 -333 26 -443 15z m365 -241 c42 -5 93 -17 114 -26 47 -20
104 -64 120 -95 11 -19 19 -23 50 -20 100 10 219 -77 279 -203 83 -176 81
-412 -4 -488 -20 -18 -20 -18 0 -58 28 -56 33 -152 13 -222 -17 -58 -67 -127
-92 -127 -16 0 -24 -16 -54 -115 -35 -113 -87 -200 -173 -292 -44 -46 -78 -85
-76 -86 2 -2 29 -11 59 -21 251 -86 495 -290 628 -526 47 -84 91 -202 112
-298 21 -99 35 -269 25 -301 l-6 -21 -1167 2 -1167 3 -3 55 c-5 81 14 225 43
325 68 233 211 445 394 583 82 61 222 138 322 176 l60 23 -46 37 c-97 80 -194
239 -231 380 -15 56 -24 70 -51 86 -48 28 -75 90 -81 183 -3 44 0 95 7 120 11
39 10 48 -18 119 -24 59 -31 91 -31 145 0 90 23 191 60 271 38 81 149 194 240
245 106 59 351 131 498 146 42 5 82 9 89 10 6 0 46 -4 87 -10z"/>
<path d="M3175 4984 c-607 -110 -1042 -677 -985 -1284 74 -783 866 -1290 1608
-1028 172 60 306 143 440 272 105 101 169 185 231 306 145 280 176 569 95 871
-117 438 -501 784 -958 864 -110 19 -322 18 -431 -1z m451 -164 c25 -12 52
-33 61 -46 9 -15 25 -24 42 -24 42 -1 103 -34 142 -77 83 -92 100 -282 33
-362 -21 -26 -22 -30 -7 -35 11 -5 13 -10 6 -17 -5 -5 -8 -32 -5 -58 6 -64
-12 -114 -52 -148 -20 -17 -37 -45 -45 -73 -21 -73 -60 -140 -114 -197 -27
-29 -48 -55 -46 -56 2 -2 31 -13 64 -26 261 -97 452 -364 458 -639 l2 -77
-747 -3 -748 -2 -5 23 c-8 30 11 169 32 239 32 111 116 243 202 320 56 51 140
103 221 137 30 13 57 25 59 27 2 2 -10 15 -27 29 -47 39 -108 137 -133 212
-14 42 -32 75 -49 90 -31 26 -56 107 -46 148 4 15 -4 50 -20 92 -22 58 -25 79
-21 138 3 39 13 92 22 118 20 56 99 147 160 182 67 40 202 82 345 109 56 10
171 -3 216 -24z"/>
<path d="M46797 4690 c-364 -34 -682 -183 -937 -440 -276 -276 -422 -606 -437
-990 -30 -732 471 -1363 1207 -1521 152 -33 437 -33 592 -1 624 130 1086 605
1193 1226 19 113 20 353 0 471 -103 635 -603 1135 -1240 1239 -120 20 -270 26
-378 16z m364 -206 c38 -11 67 -29 98 -60 34 -35 51 -44 78 -44 76 0 164 -64
209 -152 72 -140 71 -323 -2 -399 -22 -23 -24 -29 -12 -34 9 -4 16 -16 16 -28
1 -12 2 -54 3 -92 2 -85 -25 -151 -71 -168 -24 -9 -31 -20 -41 -61 -20 -91
-76 -192 -145 -265 -35 -38 -64 -71 -64 -73 0 -3 19 -10 43 -17 69 -21 197
-92 272 -151 208 -166 326 -393 342 -657 l6 -102 -499 -3 c-274 -2 -699 -2
-943 0 l-444 3 6 98 c24 359 235 654 569 793 40 17 74 31 75 32 1 1 -26 31
-60 67 -71 74 -116 152 -147 255 -16 53 -27 74 -44 82 -13 6 -33 31 -45 56
-19 37 -22 60 -20 138 2 80 -2 100 -22 143 -17 37 -23 67 -23 115 2 242 144
406 422 485 200 58 339 70 443 39z"/>
<path d="M24194 3984 c-445 -74 -816 -391 -954 -813 -113 -346 -58 -741 145
-1036 188 -274 445 -442 790 -517 92 -19 351 -17 455 5 462 98 810 425 935
877 36 128 46 360 21 503 -74 433 -389 796 -814 937 -176 58 -397 75 -578 44z
m416 -161 c19 -8 49 -26 65 -42 17 -15 53 -33 80 -40 105 -26 174 -122 183
-255 6 -95 -2 -138 -34 -176 -22 -26 -23 -31 -10 -36 13 -5 14 -9 5 -20 -7 -8
-9 -28 -5 -48 10 -54 -12 -122 -49 -154 -21 -18 -38 -46 -49 -82 -25 -77 -67
-147 -120 -199 l-45 -45 68 -26 c266 -104 461 -378 461 -646 l0 -74 -402 -2
c-222 -2 -559 -2 -750 0 l-348 3 0 53 c0 69 23 187 48 251 72 183 199 313 393
404 l79 37 -51 50 c-52 51 -112 159 -124 224 -4 23 -14 39 -28 45 -34 15 -57
72 -57 141 0 42 -8 84 -26 130 -24 65 -25 73 -15 138 17 102 45 157 112 221
66 63 123 92 254 130 157 45 284 52 365 18z"/>
<path d="M34031 3664 c-512 -86 -911 -485 -997 -996 -22 -130 -15 -334 15
-458 114 -464 467 -805 941 -907 118 -25 362 -25 480 0 120 26 190 51 305 107
346 171 583 492 651 884 24 133 15 337 -21 476 -33 132 -123 319 -204 427
-268 356 -730 541 -1170 467z m402 -156 c22 -7 55 -27 73 -45 19 -18 39 -33
46 -33 72 0 163 -70 198 -152 41 -95 39 -217 -5 -282 -13 -19 -20 -37 -17 -41
12 -11 0 -159 -14 -187 -8 -15 -26 -35 -39 -44 -15 -10 -29 -33 -36 -57 -19
-70 -68 -158 -121 -213 l-49 -52 38 -12 c170 -56 336 -200 417 -364 43 -86 76
-219 76 -303 l0 -62 -407 -3 c-225 -2 -563 -2 -752 0 l-344 3 6 97 c15 260
160 472 407 595 l108 54 -33 26 c-58 46 -145 202 -145 259 0 10 -9 22 -21 28
-37 20 -59 70 -59 136 0 42 -8 84 -26 130 -29 77 -29 132 2 233 18 61 99 156
169 197 136 80 410 127 528 92z"/>
</g>
</svg>
